<svg id="Layer_1" data-name="Layer 1" xmlns="http://www.w3.org/2000/svg" xmlns:xlink="http://www.w3.org/1999/xlink" viewBox="0 0 829 855"><defs><style>.cls-1{fill:#00a99d;}.cls-1,.cls-2{fill-opacity:0.66;}.cls-1,.cls-2,.cls-3{stroke:#000;stroke-miterlimit:10;}.cls-1,.cls-2,.cls-3,.cls-4,.cls-5,.cls-6{opacity:0.66;}.cls-2{fill:#ed1c24;}.cls-3{fill:none;stroke-width:4px;}.cls-4{fill:url(#linear-gradient);}.cls-5{fill:url(#linear-gradient-2);}.cls-6{fill:url(#linear-gradient-3);}.cls-7{font-size:50px;}.cls-7,.cls-8{font-family:Times-Bold, Times;}.cls-11,.cls-7,.cls-8{font-weight:700;}.cls-8{font-size:45px;}.cls-9{letter-spacing:-0.02em;}.cls-10{letter-spacing:-0.05em;}.cls-11{font-size:40px;font-family:Times-BoldItalic, Times;font-style:italic;}</style><linearGradient id="linear-gradient" x1="477.5" y1="391.13" x2="580.5" y2="391.13" gradientUnits="userSpaceOnUse"><stop offset="0.07" stop-color="#ed1c24"/><stop offset="0.94" stop-color="#00a99d" stop-opacity="0.66"/></linearGradient><linearGradient id="linear-gradient-2" x1="170.57" y1="276.9" x2="282.13" y2="276.9" gradientTransform="translate(169.82 617.71) rotate(-127.62)" gradientUnits="userSpaceOnUse"><stop offset="0.08" stop-color="#ed1c24"/><stop offset="0.9" stop-color="#00a99d" stop-opacity="0.66"/></linearGradient><linearGradient id="linear-gradient-3" x1="484.74" y1="1019.88" x2="586.24" y2="1019.88" gradientTransform="translate(1428.74 369.96) rotate(108.02)" gradientUnits="userSpaceOnUse"><stop offset="0.15" stop-color="#ed1c24"/><stop offset="0.93" stop-color="#00a99d" stop-opacity="0.66"/></linearGradient></defs><path class="cls-1" d="M349.51,176.61l1,0c0-.36,0-.73,0-1.09a175,175,0,1,0-212.23,171C162.26,251,247.31,179.72,349.51,176.61Z"/><path class="cls-1" d="M653.5,207.5a174.47,174.47,0,0,0-123.58,51.09,224.41,224.41,0,0,1,17,262.74A175,175,0,1,0,653.5,207.5Z"/><path class="cls-2" d="M547,521.33a175,175,0,0,1-17-262.74c-42.54-51.48-107.43-83.89-179.43-82A175.1,175.1,0,0,1,138.27,346.52a226.28,226.28,0,0,0,29.44,177.72,175.1,175.1,0,0,1,245.18,95.13A225.37,225.37,0,0,0,547,521.33Z"/><path class="cls-1" d="M167.71,524.24a174.93,174.93,0,1,0,245.18,95.13,225.62,225.62,0,0,1-245.18-95.13Z"/><path class="cls-3" d="M349.51,176.61c-121,3.69-218,103-218,224.89a224.53,224.53,0,0,0,225,225c121.93,0,221.2-97,224.89-218C585.34,279.25,478.75,172.66,349.51,176.61Z"/><path class="cls-4" d="M477.5,383.67A174.71,174.71,0,0,0,546,522.5a224.41,224.41,0,0,0-17-262.74A174.49,174.49,0,0,0,477.5,383.67Z"/><path class="cls-5" d="M283,315.1a174.67,174.67,0,0,0,68.16-139c-39.69,1.63-92,15.33-124.54,41.62-44.24,35.73-76.7,77.42-88.38,128.78C195,358.25,244.69,344.65,283,315.1Z"/><path class="cls-6" d="M315.41,517.86c-40.66-15.27-88.35-23-147,6.29,22.33,33.65,57.36,68.32,96.66,83.1,43.42,16.32,80.12,27.15,147.85,12.12C397.69,580.24,365.59,536.72,315.41,517.86Z"/><text class="cls-7" transform="translate(590.54 391.13)">AI Safety</text><text class="cls-8" transform="translate(205.99 708.38)">HRI</text><text class="cls-8" transform="translate(88.88 188.89)">Fai<tspan class="cls-9" x="62.49" y="0">r</tspan><tspan x="81.67" y="0" xml:space="preserve"> M</tspan><tspan class="cls-10" x="135.4" y="0">L</tspan></text><text class="cls-7" transform="translate(159.12 427.5)">Sociotechnical</text><text class="cls-11" transform="translate(184.05 344.92) rotate(-39.38)">“inequality”</text><text class="cls-11" transform="matrix(0.02, 1, -1, 0.02, 527.21, 295.67)">“extinction”</text><text class="cls-11" transform="matrix(0.95, 0.32, -0.32, 0.95, 194.82, 547.98)">“accident”</text></svg>